<svg width="150" height="150" viewBox="0 0 150 150" fill="none" xmlns="http://www.w3.org/2000/svg">
<rect width="150" height="150" rx="20" fill="#3646F5"/>
<path d="M74.0765 39.7264C74.0765 36.9258 71.7925 34.6151 69.0265 35.0537C66.2889 35.4878 63.6051 36.2743 61.036 37.4004C56.9017 39.2126 53.1451 41.8687 49.9808 45.2172C46.8165 48.5656 44.3064 52.5409 42.5939 56.9158C40.8814 61.2908 40 65.9799 40 70.7153C40 75.4508 40.8814 80.1399 42.5939 84.5148C44.3064 88.8898 46.8165 92.865 49.9808 96.2132C53.1451 99.562 56.9017 102.218 61.036 104.03C63.6051 105.156 66.2889 105.943 69.0265 106.377C71.7925 106.816 74.0765 104.505 74.0765 101.704V93.7398C74.0765 90.9393 71.7523 88.7424 69.0892 87.8757C68.5801 87.71 68.0777 87.5187 67.5839 87.3023C65.5255 86.4 63.6551 85.0775 62.0797 83.4104C60.5043 81.7433 59.2545 79.7641 58.4019 77.5859C57.5493 75.4076 57.1104 73.0731 57.1104 70.7153C57.1104 68.3576 57.5493 66.0231 58.4019 63.8448C59.2545 61.6666 60.5043 59.6874 62.0797 58.0202C63.6551 56.3531 65.5255 55.0306 67.5839 54.1284C68.0777 53.912 68.5801 53.7207 69.0892 53.555C71.7523 52.6883 74.0765 50.4914 74.0765 47.6908V39.7264Z" fill="white"/>
<path d="M76.9233 110.719C76.9233 113.52 79.2074 115.83 81.9734 115.392C84.711 114.958 87.3948 114.171 89.9639 113.045C94.0982 111.233 97.8549 108.577 101.019 105.228C104.183 101.88 106.693 97.9049 108.406 93.5296C110.118 89.1547 111 84.4656 111 79.7301C111 74.9947 110.118 70.3056 108.406 65.9306C106.693 61.5557 104.183 57.5804 101.019 54.232C97.8549 50.8835 94.0982 48.2273 89.9639 46.4152C87.3948 45.2891 84.711 44.5026 81.9734 44.0685C79.2074 43.6298 76.9233 45.9406 76.9233 48.7412V56.7056C76.9233 59.5062 79.2476 61.7031 81.9107 62.5698C82.4198 62.7355 82.9221 62.9267 83.416 63.1432C85.4744 64.0454 87.3447 65.3679 88.9202 67.035C90.4956 68.7022 91.7454 70.6814 92.598 72.8596C93.4506 75.0378 93.8895 77.3724 93.8895 79.7301C93.8895 82.0878 93.4506 84.4224 92.598 86.6007C91.7454 88.7788 90.4956 90.7581 88.9202 92.4252C87.3447 94.0923 85.4744 95.4149 83.416 96.317C82.9221 96.5335 82.4198 96.7247 81.9107 96.8904C79.2475 97.7571 76.9233 99.954 76.9233 102.755V110.719Z" fill="white"/>
</svg>
