<?xml version="1.0" standalone="no"?>
<!DOCTYPE svg PUBLIC "-//W3C//DTD SVG 20010904//EN"
 "http://www.w3.org/TR/2001/REC-SVG-20010904/DTD/svg10.dtd">
<svg version="1.0" xmlns="http://www.w3.org/2000/svg"
 width="700.000000pt" height="700.000000pt" viewBox="0 0 700.000000 700.000000"
 preserveAspectRatio="xMidYMid meet">
<metadata>
Created by potrace 1.14, written by Peter Selinger 2001-2017
</metadata>
<g transform="translate(0.000000,700.000000) scale(0.100000,-0.100000)"
fill="#000000" stroke="none">
<path d="M769 6984 c-387 -70 -686 -372 -754 -761 -23 -129 -23 -5317 0 -5446
68 -393 369 -694 762 -762 129 -23 5317 -23 5446 0 393 68 694 369 762 762 23
129 23 5317 0 5446 -68 393 -369 694 -762 762 -75 13 -428 15 -2732 14 -2200
-1 -2659 -3 -2722 -15z m2536 -1625 c26 -7 57 -28 87 -59 64 -67 71 -103 66
-370 l-3 -215 -29 -53 c-43 -77 -123 -139 -216 -167 -51 -15 -164 -77 -220
-120 -152 -117 -264 -298 -306 -495 -18 -86 -18 -271 1 -359 22 -106 69 -219
126 -302 110 -161 211 -238 430 -328 93 -39 145 -82 184 -152 l30 -54 0 -245
c0 -233 -1 -247 -22 -286 -29 -54 -83 -101 -133 -114 -52 -14 -172 7 -318 55
-517 172 -920 618 -1062 1176 -83 323 -64 698 51 1026 184 526 648 942 1172
1052 111 24 112 24 162 10z m650 -445 c605 -147 1073 -663 1197 -1322 29 -156
31 -455 4 -607 -50 -277 -162 -538 -323 -754 -76 -104 -250 -273 -356 -348
-170 -120 -376 -211 -576 -253 -88 -19 -109 -20 -149 -10 -66 16 -110 54 -139
116 -24 53 -24 57 -21 296 l3 243 27 46 c35 60 86 104 157 136 172 79 242 117
297 162 121 98 220 252 270 416 24 80 27 107 28 240 1 127 -3 162 -22 228 -77
267 -239 456 -477 555 -164 68 -221 111 -261 197 -23 48 -24 60 -24 286 0 233
0 236 26 287 27 55 63 87 123 108 42 16 78 12 216 -22z"/>
</g>
</svg>
