<?xml version="1.0" standalone="no"?>
<!DOCTYPE svg PUBLIC "-//W3C//DTD SVG 20010904//EN"
 "http://www.w3.org/TR/2001/REC-SVG-20010904/DTD/svg10.dtd">
<svg version="1.0" xmlns="http://www.w3.org/2000/svg"
 width="540.000000pt" height="540.000000pt" viewBox="0 0 540.000000 540.000000"
 preserveAspectRatio="xMidYMid meet">
<metadata>
Created by potrace 1.14, written by Peter Selinger 2001-2017
</metadata>
<g transform="translate(0.000000,540.000000) scale(0.100000,-0.100000)"
fill="#000000" stroke="none">
<path d="M2407 5394 c-1 -1 -31 -5 -67 -9 -98 -10 -123 -14 -150 -20 -14 -3
-38 -8 -55 -10 -16 -3 -38 -8 -47 -11 -9 -3 -25 -6 -35 -8 -10 -2 -38 -9 -63
-16 -25 -7 -56 -14 -69 -17 -14 -2 -29 -7 -35 -11 -6 -3 -15 -7 -21 -8 -18 -3
-176 -63 -229 -86 -180 -80 -432 -232 -536 -324 -8 -8 -40 -34 -70 -60 -58
-49 -179 -170 -245 -245 -241 -274 -421 -623 -520 -1009 -1 -3 -5 -25 -10 -50
-5 -25 -9 -47 -10 -50 -2 -8 -24 -140 -30 -185 -4 -22 -8 -130 -10 -240 -3
-182 5 -297 31 -445 3 -19 7 -44 9 -55 28 -162 106 -393 198 -585 65 -137 219
-381 280 -445 7 -7 28 -32 47 -56 67 -84 257 -267 339 -329 19 -14 39 -30 45
-36 6 -5 49 -36 96 -67 47 -31 90 -60 96 -64 41 -30 274 -145 369 -183 112
-45 254 -89 338 -106 10 -2 26 -5 35 -8 9 -3 31 -8 47 -11 17 -2 39 -7 51 -9
12 -2 43 -7 70 -10 27 -4 65 -9 84 -11 19 -3 85 -8 146 -11 l112 -5 1 28 c0
15 1 35 2 43 1 18 0 120 -2 170 -1 19 -1 42 0 50 1 8 1 35 0 60 -1 25 -1 52 0
60 1 8 1 35 0 60 -1 25 -1 51 0 58 0 6 1 18 2 25 1 16 0 122 -2 167 -1 19 -1
41 0 48 1 6 1 18 2 25 1 16 0 122 -2 167 -1 19 -1 42 0 50 2 31 0 105 -4 108
-2 2 0 16 5 31 11 40 -3 56 -52 58 -40 1 -125 11 -158 18 -8 2 -31 6 -50 10
-19 3 -73 19 -120 35 -47 17 -89 31 -94 32 -5 2 -36 18 -69 36 -32 17 -63 32
-68 32 -5 0 -9 5 -9 10 0 6 -6 10 -13 10 -7 0 -23 9 -35 20 -12 11 -24 20 -28
20 -16 0 -165 137 -219 202 -47 56 -148 207 -153 228 -1 5 -35 86 -52 125 -18
40 -49 162 -60 233 -21 135 -16 307 14 450 11 51 51 168 61 174 5 4 7 8 2 8
-14 0 116 239 142 260 3 3 18 21 32 40 141 187 426 365 661 414 13 3 34 7 48
10 37 9 140 20 183 20 l37 1 0 65 c0 36 0 81 -1 100 -1 19 -1 42 0 50 1 8 1
35 0 60 -1 25 -1 52 0 60 1 8 1 35 0 60 -1 25 -1 51 0 58 0 6 1 18 2 25 1 16
0 122 -2 167 -1 19 -1 41 0 48 1 6 1 18 2 25 1 16 0 122 -2 167 -1 19 -1 42 0
50 2 31 0 105 -4 108 -2 2 0 16 4 30 5 15 5 36 1 47 -4 11 -4 34 1 52 l7 33
-100 -2 c-55 -2 -100 -4 -101 -4z"/>
<path d="M2798 4773 c-2 -15 -1 -41 2 -57 3 -16 3 -65 0 -108 -3 -44 -2 -82 3
-85 4 -2 5 -8 2 -12 -2 -5 -5 -51 -4 -102 0 -52 -1 -114 -1 -139 -1 -53 -1
-76 0 -155 1 -105 1 -279 0 -300 -1 -11 -1 -27 -1 -35 1 -46 1 -151 0 -157 -4
-23 6 -29 55 -30 77 -1 187 -21 286 -50 88 -26 222 -82 228 -95 2 -5 9 -8 15
-8 10 0 99 -55 132 -82 113 -92 171 -151 243 -247 150 -201 234 -451 235 -701
0 -89 -2 -116 -19 -230 -7 -53 -62 -231 -75 -244 -5 -6 -9 -16 -9 -23 0 -12
-106 -203 -119 -213 -3 -3 -22 -25 -42 -50 -47 -58 -129 -140 -140 -140 -5 0
-9 -7 -9 -15 0 -8 -7 -15 -15 -15 -8 0 -15 -4 -15 -8 0 -11 -142 -103 -216
-140 -59 -30 -264 -105 -264 -97 0 2 -14 0 -31 -5 -35 -10 -157 -24 -205 -23
l-32 1 -1 -90 c-1 -50 -4 -94 -6 -99 -3 -4 -1 -10 5 -14 6 -4 8 -10 5 -14 -2
-5 -5 -51 -4 -102 0 -52 -1 -114 -1 -139 -1 -53 -1 -76 0 -155 1 -105 1 -279
0 -325 -1 -55 -1 -76 1 -160 0 -36 0 -69 -1 -75 -8 -35 -2 -36 113 -30 126 6
163 9 227 19 83 13 105 17 174 33 37 8 73 16 80 17 21 4 191 57 211 66 11 4
34 13 50 18 100 32 316 142 450 229 321 210 607 513 781 826 75 136 185 384
198 450 2 6 6 19 9 27 8 18 54 201 62 245 34 190 40 258 40 465 0 161 -7 270
-19 337 -2 10 -7 38 -10 63 -26 194 -132 508 -240 710 -22 41 -44 85 -50 97
-6 13 -14 23 -18 23 -5 0 -8 6 -8 13 -1 15 -147 224 -210 299 -82 98 -277 284
-376 359 -55 41 -101 76 -104 79 -3 3 -16 11 -30 19 -14 8 -52 31 -85 51 -136
83 -373 196 -440 210 -5 1 -26 8 -45 16 -33 14 -231 67 -295 79 -16 3 -46 8
-65 12 -19 3 -52 7 -72 7 -21 1 -38 4 -38 7 0 3 -6 6 -12 6 -7 1 -72 4 -144 8
l-132 6 -4 -28z"/>
</g>
</svg>
