<svg width="125" height="135" viewBox="0 0 125 135" fill="none" xmlns="http://www.w3.org/2000/svg">
<g clip-path="url(#clip0_223_2)">
<path d="M60 0C52.1207 0 44.3185 1.55195 37.039 4.56723C29.7595 7.58251 23.1451 12.0021 17.5736 17.5736C12.0021 23.1451 7.58251 29.7595 4.56723 37.039C1.55195 44.3185 -3.44416e-07 52.1207 0 60C3.44416e-07 67.8793 1.55195 75.6815 4.56723 82.961C7.58251 90.2405 12.0021 96.8549 17.5736 102.426C23.1451 107.998 29.7595 112.417 37.039 115.433C44.3185 118.448 52.1207 120 60 120V89.873C56.077 89.873 52.1925 89.1003 48.5681 87.599C44.9438 86.0978 41.6506 83.8973 38.8766 81.1234C36.1027 78.3494 33.9022 75.0562 32.401 71.4319C30.8997 67.8075 30.127 63.923 30.127 60C30.127 56.077 30.8997 52.1925 32.401 48.5681C33.9022 44.9438 36.1027 41.6506 38.8766 38.8766C41.6506 36.1027 44.9438 33.9022 48.5681 32.401C52.1925 30.8997 56.077 30.127 60 30.127V0Z" fill="white"/>
<path d="M65 135C72.8793 135 80.6815 133.448 87.961 130.433C95.2405 127.417 101.855 122.998 107.426 117.426C112.998 111.855 117.417 105.241 120.433 97.961C123.448 90.6815 125 82.8793 125 75C125 67.1207 123.448 59.3185 120.433 52.039C117.417 44.7595 112.998 38.1451 107.426 32.5736C101.855 27.0021 95.2405 22.5825 87.961 19.5672C80.6815 16.5519 72.8793 15 65 15V45.127C68.923 45.127 72.8075 45.8997 76.4319 47.401C80.0562 48.9022 83.3494 51.1027 86.1234 53.8766C88.8973 56.6506 91.0978 59.9438 92.599 63.5681C94.1003 67.1925 94.873 71.077 94.873 75C94.873 78.923 94.1003 82.8075 92.599 86.4319C91.0978 90.0562 88.8973 93.3494 86.1234 96.1234C83.3494 98.8973 80.0562 101.098 76.4319 102.599C72.8075 104.1 68.923 104.873 65 104.873V135Z" fill="white"/>
</g>
<defs>
<clipPath id="clip0_223_2">
<rect width="125" height="135" fill="white"/>
</clipPath>
</defs>
</svg>
