<svg width="168" height="46" viewBox="0 0 168 46" fill="none" xmlns="http://www.w3.org/2000/svg">
<path d="M47.5247 20.8994H42.3478V11.7599H47.5247V2.4926H58.5816V11.7599H65.6759V20.8994H58.5816V32.5955C58.5816 33.6607 58.8159 34.4276 59.2846 34.8963C59.7533 35.365 60.5203 35.5994 61.5855 35.5994H65.6759V44.7389H57.4312C54.2781 44.7389 51.8282 43.908 50.0812 42.2463C48.3769 40.5419 47.5247 38.0707 47.5247 34.8324V20.8994Z" fill="black"/>
<path d="M91.4312 11.7599V21.5386H87.2769C82.803 21.5386 80.5661 23.9886 80.5661 28.8885V44.7389H69.5092V11.7599H79.6713L80.5661 16.6173C81.5461 14.9982 82.7604 13.7838 84.2091 12.9743C85.6578 12.1647 87.5325 11.7599 89.8334 11.7599H91.4312Z" fill="black"/>
<path d="M110.968 45.1224C107.346 45.1224 104.171 44.4406 101.445 43.0771C98.7602 41.6711 96.6724 39.6898 95.1811 37.1333C93.7324 34.5768 93.0081 31.6155 93.0081 28.2494C93.0081 24.8833 93.7324 21.9221 95.1811 19.3655C96.6724 16.809 98.7602 14.849 101.445 13.4856C104.171 12.0795 107.346 11.3765 110.968 11.3765C114.589 11.3765 117.742 12.0795 120.427 13.4856C123.154 14.849 125.241 16.809 126.69 19.3655C128.181 21.9221 128.927 24.8833 128.927 28.2494C128.927 31.6155 128.181 34.5768 126.69 37.1333C125.241 39.6898 123.154 41.6711 120.427 43.0771C117.742 44.4406 114.589 45.1224 110.968 45.1224ZM110.968 36.3024C113.055 36.3024 114.696 35.5781 115.889 34.1294C117.082 32.6381 117.678 30.6781 117.678 28.2494C117.678 25.8207 117.082 23.882 115.889 22.4334C114.696 20.9421 113.055 20.1964 110.968 20.1964C108.88 20.1964 107.239 20.9421 106.046 22.4334C104.853 23.882 104.257 25.8207 104.257 28.2494C104.257 30.6781 104.853 32.6381 106.046 34.1294C107.239 35.5781 108.88 36.3024 110.968 36.3024Z" fill="black"/>
<path d="M133.359 0H144.416V23.8394L155.409 11.7599H167.553L156.24 24.3507L168 44.7389H155.409L148.443 32.5955L144.416 37.0694V44.7389H133.359V0Z" fill="black"/>
<path d="M17.8955 4.79364C17.8955 3.32289 16.6961 2.10937 15.2435 2.33972C13.8058 2.5677 12.3964 2.98073 11.0472 3.57211C8.87604 4.52379 6.90324 5.91869 5.24149 7.67716C3.57974 9.43563 2.26155 11.5233 1.36222 13.8208C0.462883 16.1183 -1.02725e-07 18.5809 0 21.0677C1.02725e-07 23.5546 0.462883 26.0171 1.36222 28.3146C2.26155 30.6121 3.57974 32.6998 5.24149 34.4581C6.90324 36.2167 8.87604 37.6115 11.0472 38.5634C12.3964 39.1547 13.8058 39.5677 15.2435 39.7957C16.6961 40.026 17.8955 38.8125 17.8955 37.3418V33.1592C17.8955 31.6884 16.675 30.5347 15.2764 30.0796C15.009 29.9926 14.7452 29.8921 14.4859 29.7784C13.4049 29.3046 12.4227 28.6101 11.5953 27.7346C10.768 26.8591 10.1116 25.8197 9.66389 24.6758C9.21612 23.5319 8.98565 22.3059 8.98565 21.0677C8.98565 19.8295 9.21612 18.6035 9.66389 17.4596C10.1116 16.3157 10.768 15.2763 11.5953 14.4008C12.4227 13.5253 13.4049 12.8308 14.4859 12.357C14.7452 12.2433 15.009 12.1428 15.2764 12.0558C16.675 11.6007 17.8955 10.447 17.8955 8.97621V4.79364Z" fill="#3646F5"/>
<path d="M19.3906 42.0761C19.3906 43.5469 20.5901 44.7604 22.0427 44.5301C23.4804 44.3021 24.8898 43.8891 26.239 43.2977C28.4101 42.3458 30.383 40.9511 32.0446 39.1925C33.7065 37.4342 35.0245 35.3467 35.924 33.049C36.8233 30.7514 37.2862 28.2889 37.2862 25.8021C37.2862 23.3152 36.8233 20.8527 35.924 18.5552C35.0245 16.2576 33.7065 14.17 32.0446 12.4115C30.383 10.6531 28.4101 9.25817 26.239 8.30648C24.8898 7.7151 23.4804 7.30207 22.0427 7.07409C20.5901 6.84375 19.3906 8.05727 19.3906 9.52802V13.7106C19.3906 15.1813 20.6112 16.335 22.0098 16.7902C22.2771 16.8772 22.5409 16.9777 22.8003 17.0913C23.8813 17.5651 24.8635 18.2597 25.6909 19.1351C26.5182 20.0107 27.1745 21.0501 27.6223 22.194C28.0701 23.3379 28.3005 24.5639 28.3005 25.8021C28.3005 27.0402 28.0701 28.2663 27.6223 29.4102C27.1745 30.5541 26.5182 31.5935 25.6909 32.469C24.8635 33.3445 23.8813 34.0391 22.8003 34.5128C22.5409 34.6265 22.2771 34.7269 22.0098 34.8139C20.6112 35.2691 19.3906 36.4228 19.3906 37.8936V42.0761Z" fill="#3646F5"/>
</svg>
